PathFileType	4	(X/Y/Z)	/Users/itak/Documents/Research/Walk-IL/dataset/trc/00228_00009.trc
DataRate	CameraRate	NumFrames	NumMarkers	Units	OrigDataRate	OrigDataStartFrame	OrigNumFrames
100.000000	100.000000	4	53	mm	100.000000	578	771
Frame#	Time	RPSI			LPSI			L3			STRN			T10			C7			CLAV			RBAK			LBAK			LSHO			LUPA			LAEL			LAOL			LWTS			LWPS			LFRA			LIFD			LHPS			LHTS			RSHO			RUPA			RAEL			RAOL			RWTS			RWPS			RFRA			RIFD			RHTS			RHPS			RBHD			LFHD			RFHD			LBHD			LHIP			RHIP			RASI			LASI			LKNE			LTHI			LANK			LTIP			LTOE			LMT1			LMT5			LHEE			RKNE			RTHI			RANK			RTIP			RTOE			RMT1			RMT5			RHEE			
		X1	Y1	Z1	X2	Y2	Z2	X3	Y3	Z3	X4	Y4	Z4	X5	Y5	Z5	X6	Y6	Z6	X7	Y7	Z7	X8	Y8	Z8	X9	Y9	Z9	X10	Y10	Z10	X11	Y11	Z11	X12	Y12	Z12	X13	Y13	Z13	X14	Y14	Z14	X15	Y15	Z15	X16	Y16	Z16	X17	Y17	Z17	X18	Y18	Z18	X19	Y19	Z19	X20	Y20	Z20	X21	Y21	Z21	X22	Y22	Z22	X23	Y23	Z23	X24	Y24	Z24	X25	Y25	Z25	X26	Y26	Z26	X27	Y27	Z27	X28	Y28	Z28	X29	Y29	Z29	X30	Y30	Z30	X31	Y31	Z31	X32	Y32	Z32	X33	Y33	Z33	X34	Y34	Z34	X35	Y35	Z35	X36	Y36	Z36	X37	Y37	Z37	X38	Y38	Z38	X39	Y39	Z39	X40	Y40	Z40	X41	Y41	Z41	X42	Y42	Z42	X43	Y43	Z43	X44	Y44	Z44	X45	Y45	Z45	X46	Y46	Z46	X47	Y47	Z47	X48	Y48	Z48	X49	Y49	Z49	X50	Y50	Z50	X51	Y51	Z51	X52	Y52	Z52	X53	Y53	Z53	

579	5.78	-416.0210571289062	1022.111572265625	133.993896484375	-295.0102233886719	1026.87109375	130.8084564208984	-335.9047241210938	1112.313354492188	124.2092514038086	-325.6133728027344	1288.79736328125	380.6377258300781	-337.7981872558594	1239.901611328125	125.3804550170898	-327.2060852050781	1499.289306640625	198.1233825683594	-326.3707885742188	1407.248046875	359.64306640625	-401.5444030761719	1363.740966796875	115.478271484375	-217.9265441894531	1461.205078125	174.1307373046875	-160.1061401367188	1459.842529296875	262.6664123535156	-83.57329559326172	1342.014892578125	226.5242767333984	-60.74756240844727	1130.415405273438	234.8668060302734	-106.7207794189453	1114.994750976562	161.9242401123047	-143.7042083740234	919.4898071289062	351.2152099609375	-66.50075531005859	890.271484375	330.7957458496094	-57.41625213623047	1025.814453125	268.5570983886719	-158.2711181640625	728.7593994140625	385.9112854003906	-81.64737701416016	806.6341552734375	361.4282531738281	-134.0305786132812	824.185546875	400.5859680175781	-496.7263488769531	1454.255249023438	255.3676300048828	-562.880126953125	1389.93359375	230.758544921875	-604.6484985351562	1114.394775390625	183.203125	-512.423828125	1106.555419921875	158.337890625	-584.830810546875	891.0697021484375	309.47607421875	-643.360107421875	883.1629638671875	248.4900665283203	-622.280029296875	1045.329223632812	203.0406341552734	-589.824951171875	696.8609619140625	315.2951049804688	-609.8419799804688	769.6390380859375	340.7187805175781	-652.8941040039062	774.1884765625	282.3977355957031	-382.140380859375	1664.390014648438	268.5384216308594	-251.9709625244141	1671.43212890625	454.8292541503906	-350.1025390625	1675.300170898438	472.347900390625	-243.4107360839844	1658.595336914062	290.6458740234375	-149.4683990478516	965.6591186523438	227.9129028320312	-519.6784057617188	994.5033569335938	241.52783203125	-474.4117736816406	1037.3251953125	331.3231506347656	-193.5516204833984	1011.565124511719	329.0957336425781	-211.9551086425781	485.5970458984375	234.8945617675781	-177.2445831298828	628.1751708984375	246.9170227050781	-207.9873962402344	39.6240234375	50.77950286865234	-202.3816375732422	270.8130187988281	142.4891357421875	-317.2075805664062	43.53102493286133	242.9823913574219	-339.9800415039062	36.83668518066406	165.6373138427734	-224.6114654541016	38.32630920410156	179.6698913574219	-242.0773010253906	47.82494735717773	-22.71358680725098	-501.7461242675781	535.2474365234375	424.0513305664062	-528.6159057617188	790.87255859375	355.1826171875	-553.160888671875	29.07925987243652	432.9133605957031	-495.179443359375	413.9479675292969	454.9674987792969	-425.8616333007812	68.61161804199219	599.4931030273438	-409.4340515136719	59.95916366577148	531.6504516601562	-526.0199584960938	36.32319259643555	542.001220703125	-526.1011962890625	30.37686538696289	350.9757995605469	
580	5.79	-419.6205139160156	1022.043518066406	141.7843017578125	-298.6104736328125	1026.034912109375	137.4299163818359	-339.6573791503906	1111.6630859375	131.3664703369141	-327.2032165527344	1288.558715820312	387.1798706054688	-341.6465454101562	1239.27783203125	132.1908721923828	-330.4961853027344	1498.808227539062	204.3643646240234	-328.140380859375	1406.942138671875	365.9389953613281	-405.6357727050781	1363.056396484375	122.6112976074219	-221.4561767578125	1460.638671875	179.3305816650391	-162.6966552734375	1459.269653320312	267.2960510253906	-86.88704681396484	1341.223510742188	230.1828460693359	-64.24064636230469	1129.627197265625	237.6299133300781	-111.3604583740234	1114.670288085938	165.2688903808594	-144.2154998779297	916.2908935546875	351.7488708496094	-67.15609741210938	887.9588623046875	329.7373962402344	-59.91747283935547	1024.528564453125	269.6892700195312	-156.8739929199219	724.8687744140625	383.3280944824219	-81.13391876220703	803.789306640625	359.1150817871094	-133.1033325195312	820.1948852539062	399.3196105957031	-499.4993591308594	1453.841918945312	263.1766967773438	-565.931640625	1389.536743164062	239.2677612304688	-608.0713500976562	1113.873657226562	192.5011291503906	-516.1771240234375	1106.131591796875	166.50244140625	-586.3785400390625	890.0795288085938	317.5742797851562	-645.9744873046875	882.4931640625	257.5592346191406	-625.3909301757812	1044.824584960938	212.4331817626953	-591.42822265625	695.9801025390625	323.0787353515625	-611.012939453125	768.6838989257812	348.9317626953125	-654.9498291015625	773.3992309570312	291.3201293945312	-384.8133239746094	1664.192504882812	275.5015869140625	-252.6845245361328	1670.90185546875	460.4127807617188	-350.6524658203125	1674.781494140625	478.977294921875	-245.8607635498047	1658.286743164062	296.1448669433594	-152.5558929443359	964.003173828125	233.2121276855469	-523.0763549804688	995.12939453125	251.1042327880859	-476.2870788574219	1037.222534179688	339.8973083496094	-195.4549407958984	1010.487060546875	334.8131103515625	-214.7031707763672	484.1412963867188	241.5750122070312	-180.2034606933594	626.7117309570312	252.9618682861328	-209.1392669677734	40.8148078918457	50.63811492919922	-204.2716217041016	270.7513732910156	145.9774932861328	-317.2556457519531	43.35947418212891	243.4169464111328	-340.2976684570312	36.86258697509766	166.0079803466797	-225.0276184082031	38.3975830078125	179.5680236816406	-243.5074920654297	50.00395965576172	-22.57717323303223	-502.3942565917969	534.8106079101562	431.8003540039062	-530.6150512695312	790.7127685546875	363.9243774414062	-553.3499145507812	28.78415107727051	432.9791259765625	-495.3311462402344	413.0676574707031	461.3248291015625	-425.2865905761719	64.67160797119141	600.4971923828125	-409.3788757324219	57.4233283996582	532.3817749023438	-526.4746704101562	34.76593780517578	542.4232788085938	-526.2057495117188	30.91615676879883	351.02197265625	
581	5.8	-423.0433654785156	1022.210205078125	149.4783172607422	-302.0505065917969	1025.412109375	143.9831848144531	-343.2099609375	1111.220581054688	138.4463043212891	-328.6455383300781	1288.514404296875	393.6772766113281	-345.3843078613281	1238.871704101562	138.9649505615234	-333.7471008300781	1498.511962890625	210.6003875732422	-329.7928466796875	1406.827026367188	372.1939392089844	-409.6888122558594	1362.5771484375	129.7716674804688	-224.959228515625	1460.293090820312	184.4772338867188	-165.2292785644531	1458.941040039062	271.8368225097656	-90.16812896728516	1340.67041015625	233.7536163330078	-67.77011871337891	1129.0849609375	240.3538970947266	-116.1154251098633	1114.560913085938	168.6524047851562	-144.5684356689453	913.3159790039062	352.1855163574219	-67.72706604003906	885.9396362304688	328.468505859375	-62.42580032348633	1023.51025390625	270.7124633789062	-155.2373352050781	721.2313842773438	380.4583435058594	-80.47683715820312	801.2534790039062	356.5126953125	-131.9705963134766	816.4261474609375	397.8222961425781	-502.1715087890625	1453.59814453125	271.0572509765625	-568.8844604492188	1389.313598632812	247.8935241699219	-611.4515991210938	1113.531616210938	201.9564208984375	-519.9044189453125	1105.870727539062	174.7803955078125	-587.8941650390625	889.2920532226562	325.8480529785156	-648.5194091796875	882.0029907226562	266.8276062011719	-628.466796875	1044.509033203125	221.9897308349609	-593.0264892578125	695.2705688476562	330.9697265625	-612.1195068359375	767.8899536132812	357.2332153320312	-656.99560546875	772.8074951171875	300.3975524902344	-387.4242858886719	1664.174194335938	282.4556579589844	-253.3174591064453	1670.561157226562	465.9419250488281	-351.109619140625	1674.441650390625	485.5680541992188	-248.2588348388672	1658.177734375	301.6097106933594	-155.5691375732422	962.5115966796875	238.4839477539062	-526.3579711914062	995.9542236328125	260.5975952148438	-478.0083312988281	1037.333374023438	348.3298034667969	-197.2566223144531	1009.551940917969	340.4635620117188	-217.3578186035156	482.8092346191406	248.6517486572266	-183.1004638671875	625.3794555664062	259.216796875	-210.5310668945312	42.4235954284668	50.46018600463867	-206.2173004150391	270.9693603515625	149.6557312011719	-317.3150939941406	43.18325042724609	243.8680419921875	-340.7133178710938	36.98931503295898	166.4553680419922	-225.5655212402344	38.54997253417969	179.4057464599609	-245.3109283447266	52.79886245727539	-22.38141632080078	-503.0646362304688	534.4241333007812	439.0395812988281	-532.5637817382812	790.666015625	372.2990417480469	-553.507080078125	28.65254020690918	432.9661254882812	-495.524169921875	412.2820129394531	467.1747436523438	-424.77392578125	61.32847595214844	601.2804565429688	-409.3609619140625	55.30721282958984	532.9498901367188	-526.9763793945312	33.68658447265625	542.70361328125	-526.2843017578125	31.3443717956543	351.0259094238281	
582	5.81	-426.3194580078125	1022.591979980469	157.0626983642578	-305.3622131347656	1025.027954101562	150.4456176757812	-346.594482421875	1111.005859375	145.4175415039062	-329.9228210449219	1288.667724609375	400.1096496582031	-349.0153198242188	1238.6982421875	145.6884613037109	-336.9477844238281	1498.4130859375	216.8259887695312	-331.3107604980469	1406.909301757812	378.3991088867188	-413.6911315917969	1362.32275390625	136.94921875	-228.4227600097656	1460.184814453125	189.5659790039062	-167.6950988769531	1458.872314453125	276.2825622558594	-93.39527130126953	1340.378784179688	237.2324371337891	-71.31102752685547	1128.80859375	243.0154571533203	-120.9566497802734	1114.689086914062	172.0599670410156	-144.7624206542969	910.6150512695312	352.5348205566406	-68.22531127929688	884.2586669921875	327.0032653808594	-64.92689514160156	1022.789611816406	271.6211242675781	-153.3959655761719	717.9027709960938	377.3122863769531	-79.70578765869141	799.0714111328125	353.6373596191406	-130.6573181152344	812.9315795898438	396.1029663085938	-504.7237548828125	1453.532958984375	279.0091247558594	-571.7210693359375	1389.273315429688	256.6350708007812	-614.7722778320312	1113.38134765625	211.5586090087891	-523.5921630859375	1105.78271484375	183.1624450683594	-589.37646484375	888.726318359375	334.30322265625	-650.9854736328125	881.7097778320312	276.2922668457031	-631.4959106445312	1044.390991210938	231.6965789794922	-594.6181030273438	694.7476806640625	338.982666015625	-613.1690673828125	767.273681640625	365.632568359375	-659.02392578125	772.4297485351562	309.63427734375	-389.9603576660156	1664.336059570312	289.3943786621094	-253.8613891601562	1670.42333984375	471.414306640625	-351.4638977050781	1674.2890625	492.1142578125	-250.5920104980469	1658.27978515625	307.0357971191406	-158.5174560546875	961.2550048828125	243.6863403320312	-529.5140991210938	996.9247436523438	269.9889526367188	-479.5794982910156	1037.64404296875	356.5921325683594	-198.9597778320312	1008.812072753906	346.0099487304688	-219.8625030517578	481.6556701660156	256.1145935058594	-185.8955993652344	624.2409057617188	265.6573181152344	-212.1883087158203	44.52455139160156	50.25189590454102	-208.2105865478516	271.526611328125	153.5232391357422	-317.3626708984375	43.00569915771484	244.3242645263672	-341.2352294921875	37.24594879150391	166.9891662597656	-226.2229614257812	38.80239868164062	179.1737060546875	-247.5317077636719	56.28076553344727	-22.09971237182617	-503.725830078125	534.0621948242188	445.7264404296875	-534.400390625	790.7037353515625	380.2933959960938	-553.6246337890625	28.63969993591309	432.9243774414062	-495.7401123046875	411.5664367675781	472.4871215820312	-424.280517578125	58.55487060546875	601.8666381835938	-409.3323364257812	53.57797622680664	533.3715209960938	-527.45361328125	33.01547241210938	542.88330078125	-526.3373413085938	31.65766716003418	351.0244750976562	
